<?xml version="1.0" encoding="utf-8"?>
<!-- Generator: Adobe Illustrator 21.0.2, SVG Export Plug-In . SVG Version: 6.00 Build 0)  -->
<svg version="1.1" xmlns="http://www.w3.org/2000/svg" xmlns:xlink="http://www.w3.org/1999/xlink" x="0px" y="0px"
	 viewBox="0 0 1000 1000" enable-background="new 0 0 1000 1000" xml:space="preserve">
<g id="svg5245" inkscape:version="0.92.1 r15371" sodipodi:docname="php_activerecord_logo_01_editable.svg" xmlns:cc="http://creativecommons.org/ns#" xmlns:dc="http://purl.org/dc/elements/1.1/" xmlns:inkscape="http://www.inkscape.org/namespaces/inkscape" xmlns:rdf="http://www.w3.org/1999/02/22-rdf-syntax-ns#" xmlns:sodipodi="http://sodipodi.sourceforge.net/DTD/sodipodi-0.dtd" xmlns:svg="http://www.w3.org/2000/svg">
	
		<sodipodi:namedview  bordercolor="#666666" borderopacity="1.0" id="base" inkscape:current-layer="layer1" inkscape:cx="500.00889" inkscape:cy="500.08171" inkscape:document-units="px" inkscape:pageopacity="0.0" inkscape:pageshadow="2" inkscape:window-height="1017" inkscape:window-maximized="1" inkscape:window-width="1920" inkscape:window-x="-8" inkscape:window-y="-8" inkscape:zoom="2.0793671" pagecolor="#ffffff" showgrid="false" showguides="false" units="px">
		</sodipodi:namedview>
	
		<path id="path4626" inkscape:connector-curvature="0" fill="none" stroke="#000000" stroke-width="10.12" stroke-linecap="round" stroke-linejoin="round" d="
		M470.269,285.088v432.268"/>
	
		<path id="path4628" inkscape:connector-curvature="0" fill="none" stroke="#000000" stroke-width="10.12" stroke-linecap="round" stroke-linejoin="round" d="
		M524.035,283.885v433.452"/>
	
		<path id="path4630" inkscape:connector-curvature="0" fill="none" stroke="#000000" stroke-width="10.12" stroke-linecap="round" stroke-linejoin="round" d="
		M497.152,269.645v460.711"/>
	
		<ellipse id="ellipse4632" fill="#FFFFFF" stroke="#000000" stroke-width="10.12" stroke-linecap="round" stroke-linejoin="round" cx="500.009" cy="499.918" rx="197.642" ry="197.642"/>
	<ellipse id="ellipse4634" fill="#37ABC8" cx="500.009" cy="499.918" rx="177.668" ry="177.667"/>
	<path id="path4636" inkscape:connector-curvature="0" sodipodi:nodetypes="sccss" fill="#2C89A0" d="M500.006,337.408
		c-88.309,0-160.085,70.31-162.449,158.043c125.004-36.166,227.71,45.224,323.621,25.486c0.887-6.881,1.348-13.895,1.348-21.018
		C662.526,410.118,589.808,337.408,500.006,337.408z"/>
	
		<path id="path4638" inkscape:connector-curvature="0" sodipodi:nodetypes="ccc" fill="#AFDDE9" stroke="#000000" stroke-width="10.12" d="
		M438.136,437.527l-17.416-30.414c25.495-9.446,49.614-8.167,72.396,3.523"/>
	
		<path id="path4640" inkscape:connector-curvature="0" sodipodi:nodetypes="ccc" fill="#87CDDE" stroke="#000000" stroke-width="10.12" d="
		M481.794,513.773l17.416,30.415c21.051-17.207,32.156-38.654,33.605-64.219"/>
	
		<path id="path4642" inkscape:connector-curvature="0" sodipodi:nodetypes="csssccc" fill="#87CDDE" stroke="#000000" stroke-width="3.5735" stroke-linecap="round" stroke-linejoin="round" d="
		M438.136,437.527c34.52-19.766,68.046-34.672,95.901-43.473c36.168-11.426,52.791-6.84,59.602,5.054
		c6.842,11.949,2.219,28.758-26.197,54.311c-21.656,19.474-51.333,40.706-85.648,60.355l-21.829-38.123L438.136,437.527z"/>
	<path id="path4644" inkscape:connector-curvature="0" fill="#AFDDE9" d="M462.791,475.885l131.318-76.668l-18.401-10.478
		l-89.571,23.338l-42.072,20.806l-3.803,5.44L462.791,475.885z"/>
	
		<path id="path4646" inkscape:connector-curvature="0" sodipodi:nodetypes="csssccc" fill="none" stroke="#000000" stroke-width="10.12" stroke-linecap="round" stroke-linejoin="round" d="
		M438.136,437.527c34.52-19.766,68.046-34.672,95.901-43.473c36.168-11.426,52.791-6.84,59.602,5.054
		c6.842,11.949,2.219,28.758-26.197,54.311c-21.656,19.474-51.333,40.706-85.648,60.355l-21.829-38.123L438.136,437.527z"/>
	
		<ellipse id="circle4648" transform="matrix(0.8678 -0.4969 0.4969 0.8678 -144.8074 323.1415)" fill="#FF6600" stroke="#000000" stroke-width="10.12" stroke-linecap="round" stroke-linejoin="round" cx="534.93" cy="433.731" rx="12.975" ry="12.975"/>
	<path id="path4654" inkscape:connector-curvature="0" fill="#FF6600" d="M356.185,605.598l69.913-6.922l1.855-32.925l9.35-29.574
		l5.688-14.888l-7.885-17.636l-18.55,8.999l-27.588,31.38l-22.632,40.098L356.185,605.598z"/>
	<path id="path4656" inkscape:connector-curvature="0" fill="#FF9955" d="M275.227,614.637l81.059-8.025l30.317-67.003
		l51.232-36.753l-14.232-19.837l-60.136,30.797l-40.158,38.764l-37.94,50.821L275.227,614.637z"/>
	
		<path id="path4658" inkscape:connector-curvature="0" sodipodi:nodetypes="csc" fill="none" stroke="#000000" stroke-width="10.12" d="
		M456.029,502.132c-10.872,11.064-21.156,29.862-26.765,51.777c-4.646,18.15-6.084,38.438-1.997,58.241"/>
	
		<path id="path4660" inkscape:connector-curvature="0" sodipodi:nodetypes="cc" fill="none" stroke="#000000" stroke-width="10.12" d="
		M445.914,486.982c-60.061,45.026-84.027,93.5-92.959,132.573"/>
	<path id="path4662" inkscape:connector-curvature="0" sodipodi:nodetypes="ccccccc" fill="#FFB380" d="M424.382,489.591
		c-46.099,22.359-87.015,57.181-116.043,120.589l-24.274,2.054l38.462-63.602l57.106-44.818l41.294-20.873L424.382,489.591z"/>
	
		<path id="path4664" inkscape:connector-curvature="0" sodipodi:nodetypes="cc" fill="none" stroke="#000000" stroke-width="5.6616" d="
		M439.498,545.021c-4.202,16.273-5.505,34.464-1.807,52.219"/>
	
		<rect id="rect4666" x="433.606" y="460.15" transform="matrix(0.8736 -0.4867 0.4867 0.8736 -180.2429 279.535)" fill="#87CDDE" stroke="#000000" stroke-width="3.5735" stroke-linecap="round" stroke-linejoin="round" width="28.646" height="53.099"/>
	<path id="path4668" inkscape:connector-curvature="0" fill="#AFDDE9" d="M459.681,478.365l-24.201,13.97L424.11,472.48
		l22.579-13.088L459.681,478.365z"/>
	
		<rect id="rect4670" x="433.606" y="460.15" transform="matrix(0.8736 -0.4867 0.4867 0.8736 -180.2429 279.535)" fill="none" stroke="#000000" stroke-width="10.12" stroke-linecap="round" stroke-linejoin="round" width="28.646" height="53.099"/>
	
		<path id="path4672" inkscape:connector-curvature="0" sodipodi:nodetypes="cc" fill="none" stroke="#000000" stroke-width="10.12" d="
		M428.763,475.193c-57.881,26.581-106.576,64.01-141.648,120.962"/>
	
		<ellipse id="ellipse4674" fill="none" stroke="#000000" stroke-width="10.12" stroke-linecap="round" stroke-linejoin="round" cx="500.009" cy="499.918" rx="176.869" ry="176.869"/>
	
		<path id="path4676" inkscape:connector-curvature="0" sodipodi:nodetypes="cccccc" fill="#FF6600" stroke="#000000" stroke-width="10.12" d="
		M248.451,643.427h89.639v-70.226h-88.92l22.3,34.781C263.339,619.456,248.451,643.427,248.451,643.427L248.451,643.427z"/>
	
		<path id="path4678" inkscape:connector-curvature="0" sodipodi:nodetypes="cccccc" fill="#FF6600" stroke="#000000" stroke-width="10.12" d="
		M751.548,573.201h-89.639v70.226h88.92l-22.3-34.781C736.66,597.172,751.548,573.201,751.548,573.201L751.548,573.201z"/>
	
		<rect id="rect4680" x="293.589" y="545.898" fill="#FFFFFF" stroke="#000000" stroke-width="10.12" width="412.838" height="70.225"/>
	<path id="path5941" inkscape:connector-curvature="0" display="none" d="M349.502,559.834c0,0-0.823,0.001-1.529,0.658
		l-3.298,3.348c-0.648,0.657-0.588,1.555-0.588,1.555v30.672c0,0,0,0.957,0.588,1.555l3.298,3.348
		c0.647,0.657,1.529,0.658,1.529,0.658h15.246c0,0,0.883-0.001,1.531-0.658l3.297-3.348c0.588-0.598,0.587-0.777,0.646-1.076v-6.758
		c0-0.419-0.412-0.836-0.824-0.836h-7.004c-0.472,0-0.824,0.417-0.824,0.836v1.795c0,0.119-0.06,0.299-0.178,0.418l-0.824,0.838
		h-6.828L352.916,592c-0.177-0.119-0.176-0.299-0.234-0.418v-21.344c0,0-0.002-0.241,0.234-0.42l0.943-1.016
		c0.176-0.119,0.292-0.18,0.41-0.18h5.711c0.117,0,0.294,0.061,0.412,0.18l1,1.016c0.176,0.18,0.178,0.42,0.178,0.42v1.553
		c0,0.418,0.353,0.838,0.824,0.838h7.004c0.412,0,0.824-0.419,0.824-0.838v-6.277c0-0.06-0.059-0.119-0.059-0.119h0.059
		c0,0,0.06-0.837-0.646-1.555l-3.297-3.348c-0.648-0.657-1.531-0.658-1.531-0.658H349.502z M421.969,559.834
		c-0.472,0-0.941,0.657-0.705,1.076l10.242,39.818c0.176,0.478,0.587,0.898,1.059,0.898h7.83c0.471,0,0.94-0.42,1.117-0.898
		l10.242-39.818c0.176-0.419-0.234-1.076-0.705-1.076h-7.359c-0.472,0-0.766,0.3-0.883,0.838l-6.238,23.078l-0.59,3.527
		l-0.471-3.527l-5.297-23.078c-0.177-0.538-0.412-0.838-0.883-0.838H421.969z M574.383,559.834c0,0-0.823,0.001-1.529,0.658
		l-3.297,3.348c-0.647,0.657-0.59,1.555-0.59,1.555v30.672c0,0,0.001,0.957,0.59,1.555l3.297,3.348
		c0.647,0.657,1.529,0.658,1.529,0.658h15.246c0,0,0.884-0.001,1.531-0.658l3.295-3.348c0.588-0.598,0.589-0.777,0.648-1.076v-6.758
		c0-0.419-0.412-0.836-0.824-0.836h-7.004c-0.472,0-0.824,0.417-0.824,0.836v1.795c0,0.119-0.061,0.299-0.178,0.418l-0.824,0.838
		h-6.828L577.797,592c-0.177-0.119-0.176-0.299-0.234-0.418v-21.344c0,0-0.001-0.241,0.234-0.42l0.943-1.016
		c0.176-0.119,0.292-0.18,0.41-0.18h5.711c0.117,0,0.294,0.061,0.412,0.18l1,1.016c0.176,0.18,0.178,0.42,0.178,0.42v1.553
		c0,0.418,0.354,0.838,0.824,0.838h7.004c0.412,0,0.824-0.419,0.824-0.838v-6.277c0-0.06-0.059-0.119-0.059-0.119h0.059
		c0,0,0.058-0.837-0.648-1.555l-3.295-3.348c-0.648-0.657-1.531-0.658-1.531-0.658H574.383z M526.688,559.887
		c-0.089,0-0.141,0.008-0.141,0.008h-18.719c-0.412,0-0.824,0.357-0.824,0.836v40.119c0,0.418,0.412,0.836,0.824,0.836h7.006
		c0.471,0,0.824-0.418,0.824-0.836V586.32h2.707l5.77,14.529c0.176,0.418,0.588,0.836,1.059,0.836h7.889
		c0.412,0,0.941-0.418,0.824-0.836l-6.004-15.008l0.176-0.119l3.356-3.408c0.706-0.718,0.588-1.555,0.588-1.555v-15.186
		c0,0,0.118-0.957-0.588-1.674l-3.356-3.408C527.548,559.954,526.952,559.887,526.688,559.887L526.688,559.887z M653.729,559.887
		c-0.089,0-0.139,0.008-0.139,0.008h-18.719c-0.412,0-0.824,0.357-0.824,0.836v40.119c0,0.418,0.412,0.836,0.824,0.836h7.004
		c0.471,0,0.824-0.418,0.824-0.836V586.32h2.707l5.769,14.529c0.176,0.418,0.587,0.836,1.059,0.836h7.889
		c0.412,0,0.942-0.418,0.824-0.836l-6.004-15.008l0.176-0.119l3.356-3.408c0.706-0.718,0.588-1.555,0.588-1.555v-15.186
		c0,0,0.118-0.957-0.588-1.674l-3.356-3.408C654.589,559.954,653.993,559.887,653.729,559.887L653.729,559.887z M606.778,559.889
		c-0.266,0.003-0.861,0.081-1.391,0.664l-3.297,3.348c-0.707,0.717-0.646,1.555-0.646,1.555v30.67c0,0-0.061,0.837,0.646,1.555
		l3.297,3.348c0.706,0.717,1.529,0.658,1.529,0.658h15.246c0,0,0.766,0.06,1.473-0.658l3.355-3.348
		c0.706-0.718,0.588-1.555,0.588-1.555v-30.67c0,0,0.118-0.838-0.588-1.555l-3.355-3.348c-0.707-0.777-1.531-0.658-1.531-0.658
		h-15.188c0,0-0.051-0.008-0.139-0.008V559.889z M319.573,559.896c-0.412,0-0.589,0.298-0.824,0.836v0.061l-11.656,40.059
		c-0.118,0.418,0.412,0.836,0.883,0.836h6.711c0.471,0,0.884-0.418,1.061-0.836l1.412-4.844h11.832l1.412,4.844
		c0.177,0.418,0.59,0.836,1.061,0.836h6.711c0.471,0,1-0.418,0.883-0.836c-3.885-13.333-7.771-26.727-11.656-40.059v-0.061
		c-0.177-0.538-0.412-0.836-0.824-0.836h-2.59h-1.824H319.573z M458.451,559.896c-0.471,0-0.824,0.357-0.824,0.836v40.119
		c0,0.477,0.353,0.836,0.824,0.836h21.426c0.412,0,0.824-0.358,0.824-0.836v-7.115c0-0.479-0.412-0.838-0.824-0.838H466.28v-7.713
		h10.42c0.471,0,0.824-0.358,0.824-0.836v-7.115c0-0.479-0.354-0.836-0.824-0.836h-10.42v-7.713h13.598
		c0.412,0,0.824-0.359,0.824-0.838v-7.115c0-0.479-0.412-0.836-0.824-0.836H458.451z M540.078,559.896
		c-0.471,0-0.822,0.357-0.822,0.836v40.119c0,0.477,0.35,0.836,0.822,0.836h21.428c0.412,0,0.824-0.358,0.824-0.836v-7.115
		c0-0.479-0.412-0.838-0.824-0.838h-13.598v-7.713h10.418c0.471,0,0.824-0.358,0.824-0.836v-7.115c0-0.479-0.354-0.836-0.824-0.836
		h-10.418v-7.713h13.598c0.412,0,0.824-0.359,0.824-0.838v-7.115c0-0.479-0.412-0.836-0.824-0.836H540.078z M666.59,559.896
		c-0.471,0-0.822,0.357-0.822,0.836v40.119c0,0.477,0.352,0.836,0.822,0.836h18.721c0,0,0.823,0.059,1.529-0.658l3.297-3.348
		c0.706-0.718,0.647-1.555,0.647-1.555v-30.67c0,0,0.001-0.897-0.647-1.555l-3.297-3.348c-0.647-0.658-1.529-0.658-1.529-0.658
		H666.59z M377.387,560.015c-0.471,0-0.885,0.419-0.885,0.898v7.054c0,0.479,0.414,0.838,0.885,0.838h7.475v32.166
		c0.059,0.419,0.412,0.718,0.824,0.718h6.945c0.412,0,0.766-0.299,0.824-0.718v-32.166h7.476c0.471,0,0.883-0.359,0.883-0.838
		v-7.054c0-0.479-0.412-0.898-0.883-0.898H377.387z M408.485,560.075c-0.471,0-0.824,0.358-0.824,0.836v39.939
		c0,0.479,0.354,0.836,0.824,0.836h7.004c0.471,0,0.824-0.357,0.824-0.836v-39.939c0-0.478-0.353-0.836-0.824-0.836H408.485z
		 M515.658,568.685h6.121c0,0,0.235-0.059,0.471,0.18l0.941,0.955c0.235,0.239,0.178,0.479,0.178,0.479v5.621
		c0,0,0.058,0.24-0.178,0.479l-0.941,0.955c-0.177,0.18-0.354,0.18-0.412,0.18h-6.18V568.685z M611.627,568.685h5.767
		c0.059,0,0.235,0.001,0.412,0.18l0.941,0.955c0.235,0.239,0.178,0.479,0.178,0.479v21.346c0,0.12-0.001,0.238-0.178,0.418
		l-0.824,0.836h-6.828l-0.824-0.836c-0.117-0.18-0.176-0.298-0.176-0.418v-21.346c0,0-0.001-0.239,0.176-0.479l1.002-0.955
		C611.391,568.685,611.569,568.685,611.627,568.685L611.627,568.685z M642.699,568.685h6.121c0,0,0.235-0.059,0.471,0.18
		l0.943,0.955c0.235,0.239,0.176,0.479,0.176,0.479v5.621c0,0,0.059,0.24-0.176,0.479l-0.943,0.955
		c-0.177,0.18-0.354,0.18-0.412,0.18h-6.18V568.685z M674.42,568.685h6.121c0.117,0,0.295,0.001,0.412,0.18l1.002,1.016
		c0.177,0.18,0.176,0.418,0.176,0.418v21.346c0,0.12-0.059,0.238-0.176,0.418l-0.824,0.836h-6.711V568.685z M323.104,575.679
		l3.531,12.258h-7.121L323.104,575.679z"/>
	<path id="path6079" inkscape:connector-curvature="0" d="M472.637,633.666c-0.284,0-0.498,0.215-0.498,0.498v23.783
		c0,0.248,0.214,0.498,0.498,0.498h4.182c0.283,0,0.531-0.25,0.531-0.498v-8.613h6.559c0,0,0.496,0.072,0.922-0.353l1.984-2.022
		c0.425-0.426,0.391-0.922,0.391-0.922h-0.034l0.034-0.034v-9.041c0,0,0.033-0.496-0.391-0.922l-1.984-2.019
		c-0.426-0.425-0.922-0.356-0.922-0.356L472.637,633.666z M511.407,633.666c-0.284,0-0.496,0.215-0.496,0.498v23.783
		c0,0.248,0.213,0.498,0.496,0.498h4.184c0.283,0,0.531-0.25,0.531-0.498v-8.613h6.557c0,0,0.496,0.072,0.922-0.353l1.986-2.022
		c0.425-0.426,0.389-0.922,0.389-0.922h-0.034l0.034-0.034v-9.041c0,0,0.033-0.496-0.389-0.922l-1.986-2.019
		c-0.426-0.425-0.922-0.356-0.922-0.356L511.407,633.666z M491.533,633.704c-0.284,0-0.496,0.212-0.496,0.496v23.785
		c0,0.283,0.212,0.496,0.496,0.496h4.219c0.248,0,0.496-0.213,0.496-0.496v-9.287h5.316v9.287c0,0.283,0.248,0.496,0.495,0.496
		h4.219c0.284,0,0.496-0.213,0.496-0.496V634.2c0-0.284-0.212-0.496-0.496-0.496h-4.219c-0.248,0-0.495,0.212-0.495,0.496v9.287
		h-5.316V634.2c0-0.284-0.249-0.496-0.496-0.496H491.533z M477.35,638.878h3.652c0,0,0.141,0.001,0.282,0.107l0.602,0.601
		c0.107,0.107,0.108,0.248,0.108,0.248v3.332c0,0-0.001,0.144-0.108,0.285l-0.602,0.566c-0.142,0.142-0.282,0.105-0.282,0.105
		h-3.652V638.878z M516.121,638.878h3.65c0,0,0.141,0.001,0.282,0.107l0.603,0.601c0.107,0.107,0.106,0.248,0.106,0.248v3.332
		c0,0,0.001,0.144-0.106,0.285l-0.603,0.566c-0.142,0.142-0.282,0.105-0.282,0.105h-3.65V638.878z"/>
	<path id="path6908" inkscape:connector-curvature="0" d="M606.071,467.449l-4.022,9.824l-10.947,0.785l8.471,6.715l-2.607,10.256
		l9.258-5.674l9.338,5.555l-2.75-10.223l8.377-6.824l-10.957-0.643L606.071,467.449z"/>
</g>
<g id="active_record">
	<g>
		<path d="M339.175,600.773c0.118,0.412-0.413,0.824-0.884,0.824h-6.714c-0.471,0-0.883-0.412-1.06-0.824l-1.414-4.771h-11.839
			l-1.414,4.771c-0.177,0.412-0.589,0.824-1.06,0.824h-6.714c-0.471,0-1.001-0.412-0.884-0.824l11.662-39.463v-0.059
			c0.236-0.53,0.412-0.824,0.825-0.824h2.591h1.826h2.591c0.413,0,0.648,0.294,0.825,0.824v0.059
			C331.4,574.445,335.287,587.639,339.175,600.773z M326.747,588.051l-3.534-12.074l-3.593,12.074H326.747z"/>
		<path d="M344.181,565.846c0,0-0.059-0.883,0.589-1.531l3.298-3.298c0.707-0.648,1.531-0.648,1.531-0.648h15.255
			c0,0,0.883,0,1.531,0.648l3.298,3.298c0.707,0.707,0.648,1.531,0.648,1.531h-0.059c0,0,0.059,0.06,0.059,0.118v6.185
			c0,0.412-0.412,0.824-0.825,0.824h-7.009c-0.471,0-0.825-0.412-0.825-0.824v-1.531c0,0,0-0.236-0.176-0.413l-1.001-1.001
			c-0.118-0.118-0.294-0.177-0.413-0.177h-5.713c-0.118,0-0.236,0.059-0.412,0.177l-0.942,1.001
			c-0.236,0.177-0.236,0.413-0.236,0.413v21.026c0.059,0.118,0.059,0.295,0.236,0.412l0.824,0.825h6.833l0.825-0.825
			c0.118-0.117,0.176-0.294,0.176-0.412v-1.767c0-0.412,0.354-0.825,0.825-0.825h7.009c0.413,0,0.825,0.413,0.825,0.825v6.655
			c-0.059,0.295-0.059,0.472-0.648,1.061l-3.298,3.298c-0.648,0.648-1.531,0.648-1.531,0.648H349.6c0,0-0.883,0-1.531-0.648
			l-3.298-3.298c-0.589-0.589-0.589-1.531-0.589-1.531V565.846z"/>
		<path d="M401.902,561.429v6.95c0,0.471-0.412,0.824-0.883,0.824h-7.48v31.688c-0.059,0.412-0.412,0.707-0.825,0.707h-6.95
			c-0.413,0-0.766-0.295-0.825-0.707v-31.688h-7.48c-0.471,0-0.884-0.354-0.884-0.824v-6.95c0-0.472,0.413-0.884,0.884-0.884h23.56
			C401.49,560.545,401.902,560.957,401.902,561.429z"/>
		<path d="M416.45,561.429v39.345c0,0.471-0.354,0.824-0.825,0.824h-7.009c-0.471,0-0.825-0.354-0.825-0.824v-39.345
			c0-0.472,0.354-0.824,0.825-0.824h7.009C416.097,560.604,416.45,560.957,416.45,561.429z"/>
		<path d="M451.967,561.429l-10.249,39.227c-0.177,0.471-0.648,0.884-1.119,0.884h-7.833c-0.471,0-0.884-0.413-1.06-0.884
			l-10.249-39.227c-0.236-0.412,0.235-1.061,0.707-1.061h7.363c0.471,0,0.707,0.295,0.883,0.825l5.301,22.734l0.471,3.476
			l0.589-3.476l6.244-22.734c0.118-0.53,0.412-0.825,0.883-0.825h7.362C451.731,560.368,452.143,561.017,451.967,561.429z"/>
		<path d="M466.515,576.684h10.425c0.471,0,0.825,0.354,0.825,0.824v7.009c0,0.472-0.354,0.825-0.825,0.825h-10.425v7.598h13.605
			c0.413,0,0.825,0.354,0.825,0.824v7.01c0,0.471-0.412,0.824-0.825,0.824h-21.439c-0.471,0-0.825-0.354-0.825-0.824v-39.521
			c0-0.472,0.354-0.824,0.825-0.824h21.439c0.413,0,0.825,0.353,0.825,0.824v7.009c0,0.472-0.412,0.824-0.825,0.824h-13.605V576.684
			z"/>
		<path d="M532.304,580.983c0,0,0.118,0.824-0.589,1.531l-3.357,3.357l-0.177,0.117l6.008,14.784
			c0.118,0.412-0.412,0.824-0.824,0.824h-7.893c-0.472,0-0.884-0.412-1.061-0.824l-5.772-14.313h-2.709v14.313
			c0,0.412-0.354,0.824-0.824,0.824h-7.01c-0.412,0-0.824-0.412-0.824-0.824v-39.521c0-0.472,0.412-0.824,0.824-0.824h18.73
			c0,0,0.824-0.118,1.531,0.589l3.357,3.357c0.707,0.706,0.589,1.648,0.589,1.648V580.983z M515.93,577.803h6.185
			c0.059,0,0.235,0,0.412-0.177l0.942-0.942c0.235-0.235,0.177-0.472,0.177-0.472v-5.536c0,0,0.059-0.235-0.177-0.472l-0.942-0.942
			c-0.235-0.235-0.471-0.177-0.471-0.177h-6.126V577.803z"/>
		<path d="M548.148,576.684h10.426c0.471,0,0.824,0.354,0.824,0.824v7.009c0,0.472-0.354,0.825-0.824,0.825h-10.426v7.598h13.606
			c0.412,0,0.824,0.354,0.824,0.824v7.01c0,0.471-0.412,0.824-0.824,0.824h-21.439c-0.472,0-0.825-0.354-0.825-0.824v-39.521
			c0-0.472,0.354-0.824,0.825-0.824h21.439c0.412,0,0.824,0.353,0.824,0.824v7.009c0,0.472-0.412,0.824-0.824,0.824h-13.606V576.684
			z"/>
		<path d="M569.175,565.846c0,0-0.059-0.883,0.589-1.531l3.299-3.298c0.706-0.648,1.531-0.648,1.531-0.648h15.255
			c0,0,0.883,0,1.531,0.648l3.298,3.298c0.707,0.707,0.648,1.531,0.648,1.531h-0.06c0,0,0.06,0.06,0.06,0.118v6.185
			c0,0.412-0.413,0.824-0.825,0.824h-7.009c-0.471,0-0.824-0.412-0.824-0.824v-1.531c0,0,0-0.236-0.177-0.413l-1.002-1.001
			c-0.117-0.118-0.294-0.177-0.412-0.177h-5.713c-0.118,0-0.235,0.059-0.412,0.177l-0.942,1.001
			c-0.236,0.177-0.236,0.413-0.236,0.413v21.026c0.06,0.118,0.06,0.295,0.236,0.412l0.824,0.825h6.832l0.825-0.825
			c0.117-0.117,0.177-0.294,0.177-0.412v-1.767c0-0.412,0.354-0.825,0.824-0.825h7.009c0.412,0,0.825,0.413,0.825,0.825v6.655
			c-0.06,0.295-0.06,0.472-0.648,1.061l-3.298,3.298c-0.648,0.648-1.531,0.648-1.531,0.648h-15.255c0,0-0.884,0-1.531-0.648
			l-3.299-3.298c-0.589-0.589-0.589-1.531-0.589-1.531V565.846z"/>
		<path d="M627.78,596.12c0,0,0.117,0.824-0.589,1.531l-3.357,3.299c-0.707,0.706-1.473,0.647-1.473,0.647h-15.255
			c0,0-0.824,0.059-1.531-0.647l-3.299-3.299c-0.706-0.707-0.647-1.531-0.647-1.531v-30.215c0,0-0.059-0.825,0.647-1.531
			l3.299-3.299c0.707-0.766,1.531-0.647,1.531-0.647h15.196c0,0,0.824-0.118,1.531,0.647l3.357,3.299
			c0.706,0.706,0.589,1.531,0.589,1.531V596.12z M611.818,569.085c-0.059,0-0.235,0-0.354,0.177l-1.001,0.942
			c-0.177,0.236-0.177,0.472-0.177,0.472v21.026c0,0.118,0.059,0.236,0.177,0.413l0.824,0.824h6.832l0.825-0.824
			c0.177-0.177,0.177-0.295,0.177-0.413v-21.026c0,0,0.059-0.235-0.177-0.472l-0.942-0.942c-0.177-0.177-0.354-0.177-0.412-0.177
			H611.818z"/>
		<path d="M659.231,580.983c0,0,0.118,0.824-0.589,1.531l-3.357,3.357l-0.177,0.117l6.008,14.784
			c0.118,0.412-0.412,0.824-0.824,0.824h-7.893c-0.472,0-0.884-0.412-1.061-0.824l-5.772-14.313h-2.709v14.313
			c0,0.412-0.354,0.824-0.824,0.824h-7.009c-0.413,0-0.825-0.412-0.825-0.824v-39.521c0-0.472,0.412-0.824,0.825-0.824h18.729
			c0,0,0.824-0.118,1.531,0.589l3.357,3.357c0.707,0.706,0.589,1.648,0.589,1.648V580.983z M642.857,577.803h6.185
			c0.059,0,0.235,0,0.412-0.177l0.942-0.942c0.235-0.235,0.177-0.472,0.177-0.472v-5.536c0,0,0.059-0.235-0.177-0.472l-0.942-0.942
			c-0.235-0.235-0.471-0.177-0.471-0.177h-6.126V577.803z"/>
		<path d="M690.271,597.651l-3.298,3.299c-0.707,0.706-1.532,0.647-1.532,0.647h-18.729c-0.471,0-0.824-0.354-0.824-0.824v-39.521
			c0-0.472,0.354-0.824,0.824-0.824h18.729c0,0,0.884,0,1.532,0.647l3.298,3.299c0.647,0.647,0.647,1.531,0.647,1.531v30.215
			C690.918,596.12,690.978,596.944,690.271,597.651z M674.545,569.085v23.854h6.714l0.825-0.824
			c0.117-0.177,0.176-0.295,0.176-0.413v-21.026c0,0,0-0.235-0.176-0.412l-1.002-1.002c-0.117-0.177-0.294-0.177-0.412-0.177
			H674.545z"/>
	</g>
</g>
</svg>
